<svg id="visual" viewBox="0 0 1920 1150" width="1920" height="1150" xmlns="http://www.w3.org/2000/svg" xmlns:xlink="http://www.w3.org/1999/xlink" version="1.1"><path d="M0 1039L213 1063L427 1073L640 1049L853 1089L1067 1085L1280 1047L1493 1048L1707 1080L1920 1071L1920 1151L1707 1151L1493 1151L1280 1151L1067 1151L853 1151L640 1151L427 1151L213 1151L0 1151Z" fill="#c4db7e"></path><path d="M0 1089L213 1081L427 1057L640 1095L853 1106L1067 1072L1280 1107L1493 1055L1707 1083L1920 1080L1920 1151L1707 1151L1493 1151L1280 1151L1067 1151L853 1151L640 1151L427 1151L213 1151L0 1151Z" fill="#cfe093"></path><path d="M0 1092L213 1071L427 1087L640 1069L853 1078L1067 1072L1280 1068L1493 1105L1707 1112L1920 1096L1920 1151L1707 1151L1493 1151L1280 1151L1067 1151L853 1151L640 1151L427 1151L213 1151L0 1151Z" fill="#d9e6a8"></path><path d="M0 1087L213 1090L427 1088L640 1084L853 1123L1067 1099L1280 1089L1493 1118L1707 1114L1920 1123L1920 1151L1707 1151L1493 1151L1280 1151L1067 1151L853 1151L640 1151L427 1151L213 1151L0 1151Z" fill="#e2ebbd"></path><path d="M0 1102L213 1118L427 1114L640 1116L853 1102L1067 1126L1280 1110L1493 1124L1707 1122L1920 1116L1920 1151L1707 1151L1493 1151L1280 1151L1067 1151L853 1151L640 1151L427 1151L213 1151L0 1151Z" fill="#ebf1d2"></path><path d="M0 1141L213 1115L427 1137L640 1136L853 1106L1067 1133L1280 1122L1493 1134L1707 1111L1920 1126L1920 1151L1707 1151L1493 1151L1280 1151L1067 1151L853 1151L640 1151L427 1151L213 1151L0 1151Z" fill="#f4f6e7"></path><path d="M0 1129L213 1144L427 1125L640 1141L853 1148L1067 1135L1280 1137L1493 1136L1707 1125L1920 1143L1920 1151L1707 1151L1493 1151L1280 1151L1067 1151L853 1151L640 1151L427 1151L213 1151L0 1151Z" fill="#fcfcfc"></path></svg>